<svg id="color" enable-background="new 0 0 24 24" height="512" viewBox="0 0 24 24" width="512" xmlns="http://www.w3.org/2000/svg"><path d="m18.309 0h-12.618c-1.483 0-2.691 1.214-2.691 2.706v19.564c0 .65.358 1.239.934 1.537.573.295 1.255.247 1.781-.127l6.16-4.383c.074-.053.175-.053.25 0l6.16 4.383c.297.211.645.318.994.318.269 0 .538-.063.787-.191.576-.297.934-.886.934-1.536v-19.565c0-1.492-1.208-2.706-2.691-2.706z" fill="#2196f3"/><path d="m17.022 11.029-4.477 4.736c-.142.15-.339.235-.545.235s-.403-.085-.545-.234l-4.477-4.736c-1.298-1.372-1.298-3.605 0-4.978 1.281-1.355 3.538-1.355 4.821 0l.201.213.201-.213c1.282-1.355 3.539-1.355 4.821 0 1.298 1.372 1.298 3.605 0 4.977z" fill="#fafafa"/></svg>