<?xml version="1.0"?>
<svg xmlns="http://www.w3.org/2000/svg" xmlns:xlink="http://www.w3.org/1999/xlink" xmlns:svgjs="http://svgjs.com/svgjs" version="1.1" width="512" height="512" x="0" y="0" viewBox="0 0 24 24" style="enable-background:new 0 0 512 512" xml:space="preserve" class=""><g><path xmlns="http://www.w3.org/2000/svg" d="m21 22.271v-19.565c0-1.492-1.208-2.706-2.691-2.706h-12.618c-1.483 0-2.691 1.214-2.691 2.706v19.564c0 .65.358 1.239.934 1.537.573.295 1.255.247 1.781-.127l6.16-4.383c.074-.053.175-.053.25 0l6.16 4.383c.297.211.645.318.994.318.269 0 .538-.063.787-.191.576-.297.934-.886.934-1.536zm-1.5 0c0 .122-.077.181-.122.204-.053.026-.134.047-.224-.017l-6.16-4.383c-.595-.423-1.394-.423-1.988 0l-6.16 4.383c-.089.063-.171.043-.224.017-.045-.024-.122-.082-.122-.204v-19.565c0-.665.535-1.206 1.191-1.206h12.617c.657 0 1.191.541 1.191 1.206v19.565z" fill="#fff7f7" data-original="#000000" style="" class=""/><path xmlns="http://www.w3.org/2000/svg" d="m12.201 6.052-.201.213-.201-.213c-1.283-1.355-3.54-1.355-4.821 0-1.298 1.372-1.298 3.605 0 4.978l4.477 4.736c.142.149.339.234.545.234s.403-.085.545-.234l4.477-4.736c1.298-1.372 1.298-3.605 0-4.978-1.282-1.356-3.539-1.356-4.821 0zm3.731 3.946-3.932 4.16-3.932-4.16c-.76-.804-.76-2.111 0-2.915.355-.376.824-.583 1.321-.583.496 0 .965.207 1.32.583l.746.789c.283.299.807.299 1.09 0l.746-.789c.711-.752 1.93-.752 2.641 0 .76.804.76 2.111 0 2.915z" fill="#fff7f7" data-original="#000000" style="" class=""/></g></svg>
